<svg xmlns="http://www.w3.org/2000/svg" xmlns:xlink="http://www.w3.org/1999/xlink" width="242" height="101" viewBox="0 0 242 101">
  <defs>
    <clipPath id="clip-path">
      <rect width="242" height="101" fill="none"/>
    </clipPath>
  </defs>
  <g id="Repetir_cuadrícula_1" data-name="Repetir cuadrícula 1" opacity="0.5" clip-path="url(#clip-path)">
    <g transform="translate(-1208 -228)">
      <circle id="Elipse_2" data-name="Elipse 2" cx="3" cy="3" r="3" transform="translate(1208 231)" fill="#a4a7d1"/>
    </g>
    <g transform="translate(-1179 -228)">
      <circle id="Elipse_2-2" data-name="Elipse 2" cx="3" cy="3" r="3" transform="translate(1208 231)" fill="#a4a7d1"/>
    </g>
    <g transform="translate(-1150 -228)">
      <circle id="Elipse_2-3" data-name="Elipse 2" cx="3" cy="3" r="3" transform="translate(1208 231)" fill="#a4a7d1"/>
    </g>
    <g transform="translate(-1121 -228)">
      <circle id="Elipse_2-4" data-name="Elipse 2" cx="3" cy="3" r="3" transform="translate(1208 231)" fill="#a4a7d1"/>
    </g>
    <g transform="translate(-1092 -228)">
      <circle id="Elipse_2-5" data-name="Elipse 2" cx="3" cy="3" r="3" transform="translate(1208 231)" fill="#a4a7d1"/>
    </g>
    <g transform="translate(-1063 -228)">
      <circle id="Elipse_2-6" data-name="Elipse 2" cx="3" cy="3" r="3" transform="translate(1208 231)" fill="#a4a7d1"/>
    </g>
    <g transform="translate(-1034 -228)">
      <circle id="Elipse_2-7" data-name="Elipse 2" cx="3" cy="3" r="3" transform="translate(1208 231)" fill="#a4a7d1"/>
    </g>
    <g transform="translate(-1005 -228)">
      <circle id="Elipse_2-8" data-name="Elipse 2" cx="3" cy="3" r="3" transform="translate(1208 231)" fill="#a4a7d1"/>
    </g>
    <g transform="translate(-976 -228)">
      <circle id="Elipse_2-9" data-name="Elipse 2" cx="3" cy="3" r="3" transform="translate(1208 231)" fill="#a4a7d1"/>
    </g>
    <g transform="translate(-1208 -199)">
      <circle id="Elipse_2-10" data-name="Elipse 2" cx="3" cy="3" r="3" transform="translate(1208 231)" fill="#a4a7d1"/>
    </g>
    <g transform="translate(-1179 -199)">
      <circle id="Elipse_2-11" data-name="Elipse 2" cx="3" cy="3" r="3" transform="translate(1208 231)" fill="#a4a7d1"/>
    </g>
    <g transform="translate(-1150 -199)">
      <circle id="Elipse_2-12" data-name="Elipse 2" cx="3" cy="3" r="3" transform="translate(1208 231)" fill="#a4a7d1"/>
    </g>
    <g transform="translate(-1121 -199)">
      <circle id="Elipse_2-13" data-name="Elipse 2" cx="3" cy="3" r="3" transform="translate(1208 231)" fill="#a4a7d1"/>
    </g>
    <g transform="translate(-1092 -199)">
      <circle id="Elipse_2-14" data-name="Elipse 2" cx="3" cy="3" r="3" transform="translate(1208 231)" fill="#a4a7d1"/>
    </g>
    <g transform="translate(-1063 -199)">
      <circle id="Elipse_2-15" data-name="Elipse 2" cx="3" cy="3" r="3" transform="translate(1208 231)" fill="#a4a7d1"/>
    </g>
    <g transform="translate(-1034 -199)">
      <circle id="Elipse_2-16" data-name="Elipse 2" cx="3" cy="3" r="3" transform="translate(1208 231)" fill="#a4a7d1"/>
    </g>
    <g transform="translate(-1005 -199)">
      <circle id="Elipse_2-17" data-name="Elipse 2" cx="3" cy="3" r="3" transform="translate(1208 231)" fill="#a4a7d1"/>
    </g>
    <g transform="translate(-976 -199)">
      <circle id="Elipse_2-18" data-name="Elipse 2" cx="3" cy="3" r="3" transform="translate(1208 231)" fill="#a4a7d1"/>
    </g>
    <g transform="translate(-1208 -170)">
      <circle id="Elipse_2-19" data-name="Elipse 2" cx="3" cy="3" r="3" transform="translate(1208 231)" fill="#a4a7d1"/>
    </g>
    <g transform="translate(-1179 -170)">
      <circle id="Elipse_2-20" data-name="Elipse 2" cx="3" cy="3" r="3" transform="translate(1208 231)" fill="#a4a7d1"/>
    </g>
    <g transform="translate(-1150 -170)">
      <circle id="Elipse_2-21" data-name="Elipse 2" cx="3" cy="3" r="3" transform="translate(1208 231)" fill="#a4a7d1"/>
    </g>
    <g transform="translate(-1121 -170)">
      <circle id="Elipse_2-22" data-name="Elipse 2" cx="3" cy="3" r="3" transform="translate(1208 231)" fill="#a4a7d1"/>
    </g>
    <g transform="translate(-1092 -170)">
      <circle id="Elipse_2-23" data-name="Elipse 2" cx="3" cy="3" r="3" transform="translate(1208 231)" fill="#a4a7d1"/>
    </g>
    <g transform="translate(-1063 -170)">
      <circle id="Elipse_2-24" data-name="Elipse 2" cx="3" cy="3" r="3" transform="translate(1208 231)" fill="#a4a7d1"/>
    </g>
    <g transform="translate(-1034 -170)">
      <circle id="Elipse_2-25" data-name="Elipse 2" cx="3" cy="3" r="3" transform="translate(1208 231)" fill="#a4a7d1"/>
    </g>
    <g transform="translate(-1005 -170)">
      <circle id="Elipse_2-26" data-name="Elipse 2" cx="3" cy="3" r="3" transform="translate(1208 231)" fill="#a4a7d1"/>
    </g>
    <g transform="translate(-976 -170)">
      <circle id="Elipse_2-27" data-name="Elipse 2" cx="3" cy="3" r="3" transform="translate(1208 231)" fill="#a4a7d1"/>
    </g>
    <g transform="translate(-1208 -141)">
      <circle id="Elipse_2-28" data-name="Elipse 2" cx="3" cy="3" r="3" transform="translate(1208 231)" fill="#a4a7d1"/>
    </g>
    <g transform="translate(-1179 -141)">
      <circle id="Elipse_2-29" data-name="Elipse 2" cx="3" cy="3" r="3" transform="translate(1208 231)" fill="#a4a7d1"/>
    </g>
    <g transform="translate(-1150 -141)">
      <circle id="Elipse_2-30" data-name="Elipse 2" cx="3" cy="3" r="3" transform="translate(1208 231)" fill="#a4a7d1"/>
    </g>
    <g transform="translate(-1121 -141)">
      <circle id="Elipse_2-31" data-name="Elipse 2" cx="3" cy="3" r="3" transform="translate(1208 231)" fill="#a4a7d1"/>
    </g>
    <g transform="translate(-1092 -141)">
      <circle id="Elipse_2-32" data-name="Elipse 2" cx="3" cy="3" r="3" transform="translate(1208 231)" fill="#a4a7d1"/>
    </g>
    <g transform="translate(-1063 -141)">
      <circle id="Elipse_2-33" data-name="Elipse 2" cx="3" cy="3" r="3" transform="translate(1208 231)" fill="#a4a7d1"/>
    </g>
    <g transform="translate(-1034 -141)">
      <circle id="Elipse_2-34" data-name="Elipse 2" cx="3" cy="3" r="3" transform="translate(1208 231)" fill="#a4a7d1"/>
    </g>
    <g transform="translate(-1005 -141)">
      <circle id="Elipse_2-35" data-name="Elipse 2" cx="3" cy="3" r="3" transform="translate(1208 231)" fill="#a4a7d1"/>
    </g>
    <g transform="translate(-976 -141)">
      <circle id="Elipse_2-36" data-name="Elipse 2" cx="3" cy="3" r="3" transform="translate(1208 231)" fill="#a4a7d1"/>
    </g>
  </g>
</svg>
