<svg xmlns="http://www.w3.org/2000/svg" xmlns:xlink="http://www.w3.org/1999/xlink" width="242" height="454" viewBox="0 0 242 454">
  <defs>
    <style>
      .cls-1 {
        fill: none;
      }

      .cls-2 {
        opacity: 0.5;
        clip-path: url(#clip-path);
      }

      .cls-3 {
        fill: #a4a7d1;
      }
    </style>
    <clipPath id="clip-path">
      <rect class="cls-1" width="242" height="454"/>
    </clipPath>
  </defs>
  <g id="Repetir_cuadrícula_1" data-name="Repetir cuadrícula 1" class="cls-2">
    <g transform="translate(-1208 -228)">
      <circle id="Elipse_2" data-name="Elipse 2" class="cls-3" cx="3" cy="3" r="3" transform="translate(1208 231)"/>
    </g>
    <g transform="translate(-1179 -228)">
      <circle id="Elipse_2-2" data-name="Elipse 2" class="cls-3" cx="3" cy="3" r="3" transform="translate(1208 231)"/>
    </g>
    <g transform="translate(-1150 -228)">
      <circle id="Elipse_2-3" data-name="Elipse 2" class="cls-3" cx="3" cy="3" r="3" transform="translate(1208 231)"/>
    </g>
    <g transform="translate(-1121 -228)">
      <circle id="Elipse_2-4" data-name="Elipse 2" class="cls-3" cx="3" cy="3" r="3" transform="translate(1208 231)"/>
    </g>
    <g transform="translate(-1092 -228)">
      <circle id="Elipse_2-5" data-name="Elipse 2" class="cls-3" cx="3" cy="3" r="3" transform="translate(1208 231)"/>
    </g>
    <g transform="translate(-1063 -228)">
      <circle id="Elipse_2-6" data-name="Elipse 2" class="cls-3" cx="3" cy="3" r="3" transform="translate(1208 231)"/>
    </g>
    <g transform="translate(-1034 -228)">
      <circle id="Elipse_2-7" data-name="Elipse 2" class="cls-3" cx="3" cy="3" r="3" transform="translate(1208 231)"/>
    </g>
    <g transform="translate(-1005 -228)">
      <circle id="Elipse_2-8" data-name="Elipse 2" class="cls-3" cx="3" cy="3" r="3" transform="translate(1208 231)"/>
    </g>
    <g transform="translate(-976 -228)">
      <circle id="Elipse_2-9" data-name="Elipse 2" class="cls-3" cx="3" cy="3" r="3" transform="translate(1208 231)"/>
    </g>
    <g transform="translate(-1208 -199)">
      <circle id="Elipse_2-10" data-name="Elipse 2" class="cls-3" cx="3" cy="3" r="3" transform="translate(1208 231)"/>
    </g>
    <g transform="translate(-1179 -199)">
      <circle id="Elipse_2-11" data-name="Elipse 2" class="cls-3" cx="3" cy="3" r="3" transform="translate(1208 231)"/>
    </g>
    <g transform="translate(-1150 -199)">
      <circle id="Elipse_2-12" data-name="Elipse 2" class="cls-3" cx="3" cy="3" r="3" transform="translate(1208 231)"/>
    </g>
    <g transform="translate(-1121 -199)">
      <circle id="Elipse_2-13" data-name="Elipse 2" class="cls-3" cx="3" cy="3" r="3" transform="translate(1208 231)"/>
    </g>
    <g transform="translate(-1092 -199)">
      <circle id="Elipse_2-14" data-name="Elipse 2" class="cls-3" cx="3" cy="3" r="3" transform="translate(1208 231)"/>
    </g>
    <g transform="translate(-1063 -199)">
      <circle id="Elipse_2-15" data-name="Elipse 2" class="cls-3" cx="3" cy="3" r="3" transform="translate(1208 231)"/>
    </g>
    <g transform="translate(-1034 -199)">
      <circle id="Elipse_2-16" data-name="Elipse 2" class="cls-3" cx="3" cy="3" r="3" transform="translate(1208 231)"/>
    </g>
    <g transform="translate(-1005 -199)">
      <circle id="Elipse_2-17" data-name="Elipse 2" class="cls-3" cx="3" cy="3" r="3" transform="translate(1208 231)"/>
    </g>
    <g transform="translate(-976 -199)">
      <circle id="Elipse_2-18" data-name="Elipse 2" class="cls-3" cx="3" cy="3" r="3" transform="translate(1208 231)"/>
    </g>
    <g transform="translate(-1208 -170)">
      <circle id="Elipse_2-19" data-name="Elipse 2" class="cls-3" cx="3" cy="3" r="3" transform="translate(1208 231)"/>
    </g>
    <g transform="translate(-1179 -170)">
      <circle id="Elipse_2-20" data-name="Elipse 2" class="cls-3" cx="3" cy="3" r="3" transform="translate(1208 231)"/>
    </g>
    <g transform="translate(-1150 -170)">
      <circle id="Elipse_2-21" data-name="Elipse 2" class="cls-3" cx="3" cy="3" r="3" transform="translate(1208 231)"/>
    </g>
    <g transform="translate(-1121 -170)">
      <circle id="Elipse_2-22" data-name="Elipse 2" class="cls-3" cx="3" cy="3" r="3" transform="translate(1208 231)"/>
    </g>
    <g transform="translate(-1092 -170)">
      <circle id="Elipse_2-23" data-name="Elipse 2" class="cls-3" cx="3" cy="3" r="3" transform="translate(1208 231)"/>
    </g>
    <g transform="translate(-1063 -170)">
      <circle id="Elipse_2-24" data-name="Elipse 2" class="cls-3" cx="3" cy="3" r="3" transform="translate(1208 231)"/>
    </g>
    <g transform="translate(-1034 -170)">
      <circle id="Elipse_2-25" data-name="Elipse 2" class="cls-3" cx="3" cy="3" r="3" transform="translate(1208 231)"/>
    </g>
    <g transform="translate(-1005 -170)">
      <circle id="Elipse_2-26" data-name="Elipse 2" class="cls-3" cx="3" cy="3" r="3" transform="translate(1208 231)"/>
    </g>
    <g transform="translate(-976 -170)">
      <circle id="Elipse_2-27" data-name="Elipse 2" class="cls-3" cx="3" cy="3" r="3" transform="translate(1208 231)"/>
    </g>
    <g transform="translate(-1208 -141)">
      <circle id="Elipse_2-28" data-name="Elipse 2" class="cls-3" cx="3" cy="3" r="3" transform="translate(1208 231)"/>
    </g>
    <g transform="translate(-1179 -141)">
      <circle id="Elipse_2-29" data-name="Elipse 2" class="cls-3" cx="3" cy="3" r="3" transform="translate(1208 231)"/>
    </g>
    <g transform="translate(-1150 -141)">
      <circle id="Elipse_2-30" data-name="Elipse 2" class="cls-3" cx="3" cy="3" r="3" transform="translate(1208 231)"/>
    </g>
    <g transform="translate(-1121 -141)">
      <circle id="Elipse_2-31" data-name="Elipse 2" class="cls-3" cx="3" cy="3" r="3" transform="translate(1208 231)"/>
    </g>
    <g transform="translate(-1092 -141)">
      <circle id="Elipse_2-32" data-name="Elipse 2" class="cls-3" cx="3" cy="3" r="3" transform="translate(1208 231)"/>
    </g>
    <g transform="translate(-1063 -141)">
      <circle id="Elipse_2-33" data-name="Elipse 2" class="cls-3" cx="3" cy="3" r="3" transform="translate(1208 231)"/>
    </g>
    <g transform="translate(-1034 -141)">
      <circle id="Elipse_2-34" data-name="Elipse 2" class="cls-3" cx="3" cy="3" r="3" transform="translate(1208 231)"/>
    </g>
    <g transform="translate(-1005 -141)">
      <circle id="Elipse_2-35" data-name="Elipse 2" class="cls-3" cx="3" cy="3" r="3" transform="translate(1208 231)"/>
    </g>
    <g transform="translate(-976 -141)">
      <circle id="Elipse_2-36" data-name="Elipse 2" class="cls-3" cx="3" cy="3" r="3" transform="translate(1208 231)"/>
    </g>
    <g transform="translate(-1208 -112)">
      <circle id="Elipse_2-37" data-name="Elipse 2" class="cls-3" cx="3" cy="3" r="3" transform="translate(1208 231)"/>
    </g>
    <g transform="translate(-1179 -112)">
      <circle id="Elipse_2-38" data-name="Elipse 2" class="cls-3" cx="3" cy="3" r="3" transform="translate(1208 231)"/>
    </g>
    <g transform="translate(-1150 -112)">
      <circle id="Elipse_2-39" data-name="Elipse 2" class="cls-3" cx="3" cy="3" r="3" transform="translate(1208 231)"/>
    </g>
    <g transform="translate(-1121 -112)">
      <circle id="Elipse_2-40" data-name="Elipse 2" class="cls-3" cx="3" cy="3" r="3" transform="translate(1208 231)"/>
    </g>
    <g transform="translate(-1092 -112)">
      <circle id="Elipse_2-41" data-name="Elipse 2" class="cls-3" cx="3" cy="3" r="3" transform="translate(1208 231)"/>
    </g>
    <g transform="translate(-1063 -112)">
      <circle id="Elipse_2-42" data-name="Elipse 2" class="cls-3" cx="3" cy="3" r="3" transform="translate(1208 231)"/>
    </g>
    <g transform="translate(-1034 -112)">
      <circle id="Elipse_2-43" data-name="Elipse 2" class="cls-3" cx="3" cy="3" r="3" transform="translate(1208 231)"/>
    </g>
    <g transform="translate(-1005 -112)">
      <circle id="Elipse_2-44" data-name="Elipse 2" class="cls-3" cx="3" cy="3" r="3" transform="translate(1208 231)"/>
    </g>
    <g transform="translate(-976 -112)">
      <circle id="Elipse_2-45" data-name="Elipse 2" class="cls-3" cx="3" cy="3" r="3" transform="translate(1208 231)"/>
    </g>
    <g transform="translate(-1208 -83)">
      <circle id="Elipse_2-46" data-name="Elipse 2" class="cls-3" cx="3" cy="3" r="3" transform="translate(1208 231)"/>
    </g>
    <g transform="translate(-1179 -83)">
      <circle id="Elipse_2-47" data-name="Elipse 2" class="cls-3" cx="3" cy="3" r="3" transform="translate(1208 231)"/>
    </g>
    <g transform="translate(-1150 -83)">
      <circle id="Elipse_2-48" data-name="Elipse 2" class="cls-3" cx="3" cy="3" r="3" transform="translate(1208 231)"/>
    </g>
    <g transform="translate(-1121 -83)">
      <circle id="Elipse_2-49" data-name="Elipse 2" class="cls-3" cx="3" cy="3" r="3" transform="translate(1208 231)"/>
    </g>
    <g transform="translate(-1092 -83)">
      <circle id="Elipse_2-50" data-name="Elipse 2" class="cls-3" cx="3" cy="3" r="3" transform="translate(1208 231)"/>
    </g>
    <g transform="translate(-1063 -83)">
      <circle id="Elipse_2-51" data-name="Elipse 2" class="cls-3" cx="3" cy="3" r="3" transform="translate(1208 231)"/>
    </g>
    <g transform="translate(-1034 -83)">
      <circle id="Elipse_2-52" data-name="Elipse 2" class="cls-3" cx="3" cy="3" r="3" transform="translate(1208 231)"/>
    </g>
    <g transform="translate(-1005 -83)">
      <circle id="Elipse_2-53" data-name="Elipse 2" class="cls-3" cx="3" cy="3" r="3" transform="translate(1208 231)"/>
    </g>
    <g transform="translate(-976 -83)">
      <circle id="Elipse_2-54" data-name="Elipse 2" class="cls-3" cx="3" cy="3" r="3" transform="translate(1208 231)"/>
    </g>
    <g transform="translate(-1208 -54)">
      <circle id="Elipse_2-55" data-name="Elipse 2" class="cls-3" cx="3" cy="3" r="3" transform="translate(1208 231)"/>
    </g>
    <g transform="translate(-1179 -54)">
      <circle id="Elipse_2-56" data-name="Elipse 2" class="cls-3" cx="3" cy="3" r="3" transform="translate(1208 231)"/>
    </g>
    <g transform="translate(-1150 -54)">
      <circle id="Elipse_2-57" data-name="Elipse 2" class="cls-3" cx="3" cy="3" r="3" transform="translate(1208 231)"/>
    </g>
    <g transform="translate(-1121 -54)">
      <circle id="Elipse_2-58" data-name="Elipse 2" class="cls-3" cx="3" cy="3" r="3" transform="translate(1208 231)"/>
    </g>
    <g transform="translate(-1092 -54)">
      <circle id="Elipse_2-59" data-name="Elipse 2" class="cls-3" cx="3" cy="3" r="3" transform="translate(1208 231)"/>
    </g>
    <g transform="translate(-1063 -54)">
      <circle id="Elipse_2-60" data-name="Elipse 2" class="cls-3" cx="3" cy="3" r="3" transform="translate(1208 231)"/>
    </g>
    <g transform="translate(-1034 -54)">
      <circle id="Elipse_2-61" data-name="Elipse 2" class="cls-3" cx="3" cy="3" r="3" transform="translate(1208 231)"/>
    </g>
    <g transform="translate(-1005 -54)">
      <circle id="Elipse_2-62" data-name="Elipse 2" class="cls-3" cx="3" cy="3" r="3" transform="translate(1208 231)"/>
    </g>
    <g transform="translate(-976 -54)">
      <circle id="Elipse_2-63" data-name="Elipse 2" class="cls-3" cx="3" cy="3" r="3" transform="translate(1208 231)"/>
    </g>
    <g transform="translate(-1208 -25)">
      <circle id="Elipse_2-64" data-name="Elipse 2" class="cls-3" cx="3" cy="3" r="3" transform="translate(1208 231)"/>
    </g>
    <g transform="translate(-1179 -25)">
      <circle id="Elipse_2-65" data-name="Elipse 2" class="cls-3" cx="3" cy="3" r="3" transform="translate(1208 231)"/>
    </g>
    <g transform="translate(-1150 -25)">
      <circle id="Elipse_2-66" data-name="Elipse 2" class="cls-3" cx="3" cy="3" r="3" transform="translate(1208 231)"/>
    </g>
    <g transform="translate(-1121 -25)">
      <circle id="Elipse_2-67" data-name="Elipse 2" class="cls-3" cx="3" cy="3" r="3" transform="translate(1208 231)"/>
    </g>
    <g transform="translate(-1092 -25)">
      <circle id="Elipse_2-68" data-name="Elipse 2" class="cls-3" cx="3" cy="3" r="3" transform="translate(1208 231)"/>
    </g>
    <g transform="translate(-1063 -25)">
      <circle id="Elipse_2-69" data-name="Elipse 2" class="cls-3" cx="3" cy="3" r="3" transform="translate(1208 231)"/>
    </g>
    <g transform="translate(-1034 -25)">
      <circle id="Elipse_2-70" data-name="Elipse 2" class="cls-3" cx="3" cy="3" r="3" transform="translate(1208 231)"/>
    </g>
    <g transform="translate(-1005 -25)">
      <circle id="Elipse_2-71" data-name="Elipse 2" class="cls-3" cx="3" cy="3" r="3" transform="translate(1208 231)"/>
    </g>
    <g transform="translate(-976 -25)">
      <circle id="Elipse_2-72" data-name="Elipse 2" class="cls-3" cx="3" cy="3" r="3" transform="translate(1208 231)"/>
    </g>
    <g transform="translate(-1208 4)">
      <circle id="Elipse_2-73" data-name="Elipse 2" class="cls-3" cx="3" cy="3" r="3" transform="translate(1208 231)"/>
    </g>
    <g transform="translate(-1179 4)">
      <circle id="Elipse_2-74" data-name="Elipse 2" class="cls-3" cx="3" cy="3" r="3" transform="translate(1208 231)"/>
    </g>
    <g transform="translate(-1150 4)">
      <circle id="Elipse_2-75" data-name="Elipse 2" class="cls-3" cx="3" cy="3" r="3" transform="translate(1208 231)"/>
    </g>
    <g transform="translate(-1121 4)">
      <circle id="Elipse_2-76" data-name="Elipse 2" class="cls-3" cx="3" cy="3" r="3" transform="translate(1208 231)"/>
    </g>
    <g transform="translate(-1092 4)">
      <circle id="Elipse_2-77" data-name="Elipse 2" class="cls-3" cx="3" cy="3" r="3" transform="translate(1208 231)"/>
    </g>
    <g transform="translate(-1063 4)">
      <circle id="Elipse_2-78" data-name="Elipse 2" class="cls-3" cx="3" cy="3" r="3" transform="translate(1208 231)"/>
    </g>
    <g transform="translate(-1034 4)">
      <circle id="Elipse_2-79" data-name="Elipse 2" class="cls-3" cx="3" cy="3" r="3" transform="translate(1208 231)"/>
    </g>
    <g transform="translate(-1005 4)">
      <circle id="Elipse_2-80" data-name="Elipse 2" class="cls-3" cx="3" cy="3" r="3" transform="translate(1208 231)"/>
    </g>
    <g transform="translate(-976 4)">
      <circle id="Elipse_2-81" data-name="Elipse 2" class="cls-3" cx="3" cy="3" r="3" transform="translate(1208 231)"/>
    </g>
    <g transform="translate(-1208 33)">
      <circle id="Elipse_2-82" data-name="Elipse 2" class="cls-3" cx="3" cy="3" r="3" transform="translate(1208 231)"/>
    </g>
    <g transform="translate(-1179 33)">
      <circle id="Elipse_2-83" data-name="Elipse 2" class="cls-3" cx="3" cy="3" r="3" transform="translate(1208 231)"/>
    </g>
    <g transform="translate(-1150 33)">
      <circle id="Elipse_2-84" data-name="Elipse 2" class="cls-3" cx="3" cy="3" r="3" transform="translate(1208 231)"/>
    </g>
    <g transform="translate(-1121 33)">
      <circle id="Elipse_2-85" data-name="Elipse 2" class="cls-3" cx="3" cy="3" r="3" transform="translate(1208 231)"/>
    </g>
    <g transform="translate(-1092 33)">
      <circle id="Elipse_2-86" data-name="Elipse 2" class="cls-3" cx="3" cy="3" r="3" transform="translate(1208 231)"/>
    </g>
    <g transform="translate(-1063 33)">
      <circle id="Elipse_2-87" data-name="Elipse 2" class="cls-3" cx="3" cy="3" r="3" transform="translate(1208 231)"/>
    </g>
    <g transform="translate(-1034 33)">
      <circle id="Elipse_2-88" data-name="Elipse 2" class="cls-3" cx="3" cy="3" r="3" transform="translate(1208 231)"/>
    </g>
    <g transform="translate(-1005 33)">
      <circle id="Elipse_2-89" data-name="Elipse 2" class="cls-3" cx="3" cy="3" r="3" transform="translate(1208 231)"/>
    </g>
    <g transform="translate(-976 33)">
      <circle id="Elipse_2-90" data-name="Elipse 2" class="cls-3" cx="3" cy="3" r="3" transform="translate(1208 231)"/>
    </g>
    <g transform="translate(-1208 62)">
      <circle id="Elipse_2-91" data-name="Elipse 2" class="cls-3" cx="3" cy="3" r="3" transform="translate(1208 231)"/>
    </g>
    <g transform="translate(-1179 62)">
      <circle id="Elipse_2-92" data-name="Elipse 2" class="cls-3" cx="3" cy="3" r="3" transform="translate(1208 231)"/>
    </g>
    <g transform="translate(-1150 62)">
      <circle id="Elipse_2-93" data-name="Elipse 2" class="cls-3" cx="3" cy="3" r="3" transform="translate(1208 231)"/>
    </g>
    <g transform="translate(-1121 62)">
      <circle id="Elipse_2-94" data-name="Elipse 2" class="cls-3" cx="3" cy="3" r="3" transform="translate(1208 231)"/>
    </g>
    <g transform="translate(-1092 62)">
      <circle id="Elipse_2-95" data-name="Elipse 2" class="cls-3" cx="3" cy="3" r="3" transform="translate(1208 231)"/>
    </g>
    <g transform="translate(-1063 62)">
      <circle id="Elipse_2-96" data-name="Elipse 2" class="cls-3" cx="3" cy="3" r="3" transform="translate(1208 231)"/>
    </g>
    <g transform="translate(-1034 62)">
      <circle id="Elipse_2-97" data-name="Elipse 2" class="cls-3" cx="3" cy="3" r="3" transform="translate(1208 231)"/>
    </g>
    <g transform="translate(-1005 62)">
      <circle id="Elipse_2-98" data-name="Elipse 2" class="cls-3" cx="3" cy="3" r="3" transform="translate(1208 231)"/>
    </g>
    <g transform="translate(-976 62)">
      <circle id="Elipse_2-99" data-name="Elipse 2" class="cls-3" cx="3" cy="3" r="3" transform="translate(1208 231)"/>
    </g>
    <g transform="translate(-1208 91)">
      <circle id="Elipse_2-100" data-name="Elipse 2" class="cls-3" cx="3" cy="3" r="3" transform="translate(1208 231)"/>
    </g>
    <g transform="translate(-1179 91)">
      <circle id="Elipse_2-101" data-name="Elipse 2" class="cls-3" cx="3" cy="3" r="3" transform="translate(1208 231)"/>
    </g>
    <g transform="translate(-1150 91)">
      <circle id="Elipse_2-102" data-name="Elipse 2" class="cls-3" cx="3" cy="3" r="3" transform="translate(1208 231)"/>
    </g>
    <g transform="translate(-1121 91)">
      <circle id="Elipse_2-103" data-name="Elipse 2" class="cls-3" cx="3" cy="3" r="3" transform="translate(1208 231)"/>
    </g>
    <g transform="translate(-1092 91)">
      <circle id="Elipse_2-104" data-name="Elipse 2" class="cls-3" cx="3" cy="3" r="3" transform="translate(1208 231)"/>
    </g>
    <g transform="translate(-1063 91)">
      <circle id="Elipse_2-105" data-name="Elipse 2" class="cls-3" cx="3" cy="3" r="3" transform="translate(1208 231)"/>
    </g>
    <g transform="translate(-1034 91)">
      <circle id="Elipse_2-106" data-name="Elipse 2" class="cls-3" cx="3" cy="3" r="3" transform="translate(1208 231)"/>
    </g>
    <g transform="translate(-1005 91)">
      <circle id="Elipse_2-107" data-name="Elipse 2" class="cls-3" cx="3" cy="3" r="3" transform="translate(1208 231)"/>
    </g>
    <g transform="translate(-976 91)">
      <circle id="Elipse_2-108" data-name="Elipse 2" class="cls-3" cx="3" cy="3" r="3" transform="translate(1208 231)"/>
    </g>
    <g transform="translate(-1208 120)">
      <circle id="Elipse_2-109" data-name="Elipse 2" class="cls-3" cx="3" cy="3" r="3" transform="translate(1208 231)"/>
    </g>
    <g transform="translate(-1179 120)">
      <circle id="Elipse_2-110" data-name="Elipse 2" class="cls-3" cx="3" cy="3" r="3" transform="translate(1208 231)"/>
    </g>
    <g transform="translate(-1150 120)">
      <circle id="Elipse_2-111" data-name="Elipse 2" class="cls-3" cx="3" cy="3" r="3" transform="translate(1208 231)"/>
    </g>
    <g transform="translate(-1121 120)">
      <circle id="Elipse_2-112" data-name="Elipse 2" class="cls-3" cx="3" cy="3" r="3" transform="translate(1208 231)"/>
    </g>
    <g transform="translate(-1092 120)">
      <circle id="Elipse_2-113" data-name="Elipse 2" class="cls-3" cx="3" cy="3" r="3" transform="translate(1208 231)"/>
    </g>
    <g transform="translate(-1063 120)">
      <circle id="Elipse_2-114" data-name="Elipse 2" class="cls-3" cx="3" cy="3" r="3" transform="translate(1208 231)"/>
    </g>
    <g transform="translate(-1034 120)">
      <circle id="Elipse_2-115" data-name="Elipse 2" class="cls-3" cx="3" cy="3" r="3" transform="translate(1208 231)"/>
    </g>
    <g transform="translate(-1005 120)">
      <circle id="Elipse_2-116" data-name="Elipse 2" class="cls-3" cx="3" cy="3" r="3" transform="translate(1208 231)"/>
    </g>
    <g transform="translate(-976 120)">
      <circle id="Elipse_2-117" data-name="Elipse 2" class="cls-3" cx="3" cy="3" r="3" transform="translate(1208 231)"/>
    </g>
    <g transform="translate(-1208 149)">
      <circle id="Elipse_2-118" data-name="Elipse 2" class="cls-3" cx="3" cy="3" r="3" transform="translate(1208 231)"/>
    </g>
    <g transform="translate(-1179 149)">
      <circle id="Elipse_2-119" data-name="Elipse 2" class="cls-3" cx="3" cy="3" r="3" transform="translate(1208 231)"/>
    </g>
    <g transform="translate(-1150 149)">
      <circle id="Elipse_2-120" data-name="Elipse 2" class="cls-3" cx="3" cy="3" r="3" transform="translate(1208 231)"/>
    </g>
    <g transform="translate(-1121 149)">
      <circle id="Elipse_2-121" data-name="Elipse 2" class="cls-3" cx="3" cy="3" r="3" transform="translate(1208 231)"/>
    </g>
    <g transform="translate(-1092 149)">
      <circle id="Elipse_2-122" data-name="Elipse 2" class="cls-3" cx="3" cy="3" r="3" transform="translate(1208 231)"/>
    </g>
    <g transform="translate(-1063 149)">
      <circle id="Elipse_2-123" data-name="Elipse 2" class="cls-3" cx="3" cy="3" r="3" transform="translate(1208 231)"/>
    </g>
    <g transform="translate(-1034 149)">
      <circle id="Elipse_2-124" data-name="Elipse 2" class="cls-3" cx="3" cy="3" r="3" transform="translate(1208 231)"/>
    </g>
    <g transform="translate(-1005 149)">
      <circle id="Elipse_2-125" data-name="Elipse 2" class="cls-3" cx="3" cy="3" r="3" transform="translate(1208 231)"/>
    </g>
    <g transform="translate(-976 149)">
      <circle id="Elipse_2-126" data-name="Elipse 2" class="cls-3" cx="3" cy="3" r="3" transform="translate(1208 231)"/>
    </g>
    <g transform="translate(-1208 178)">
      <circle id="Elipse_2-127" data-name="Elipse 2" class="cls-3" cx="3" cy="3" r="3" transform="translate(1208 231)"/>
    </g>
    <g transform="translate(-1179 178)">
      <circle id="Elipse_2-128" data-name="Elipse 2" class="cls-3" cx="3" cy="3" r="3" transform="translate(1208 231)"/>
    </g>
    <g transform="translate(-1150 178)">
      <circle id="Elipse_2-129" data-name="Elipse 2" class="cls-3" cx="3" cy="3" r="3" transform="translate(1208 231)"/>
    </g>
    <g transform="translate(-1121 178)">
      <circle id="Elipse_2-130" data-name="Elipse 2" class="cls-3" cx="3" cy="3" r="3" transform="translate(1208 231)"/>
    </g>
    <g transform="translate(-1092 178)">
      <circle id="Elipse_2-131" data-name="Elipse 2" class="cls-3" cx="3" cy="3" r="3" transform="translate(1208 231)"/>
    </g>
    <g transform="translate(-1063 178)">
      <circle id="Elipse_2-132" data-name="Elipse 2" class="cls-3" cx="3" cy="3" r="3" transform="translate(1208 231)"/>
    </g>
    <g transform="translate(-1034 178)">
      <circle id="Elipse_2-133" data-name="Elipse 2" class="cls-3" cx="3" cy="3" r="3" transform="translate(1208 231)"/>
    </g>
    <g transform="translate(-1005 178)">
      <circle id="Elipse_2-134" data-name="Elipse 2" class="cls-3" cx="3" cy="3" r="3" transform="translate(1208 231)"/>
    </g>
    <g transform="translate(-976 178)">
      <circle id="Elipse_2-135" data-name="Elipse 2" class="cls-3" cx="3" cy="3" r="3" transform="translate(1208 231)"/>
    </g>
    <g transform="translate(-1208 207)">
      <circle id="Elipse_2-136" data-name="Elipse 2" class="cls-3" cx="3" cy="3" r="3" transform="translate(1208 231)"/>
    </g>
    <g transform="translate(-1179 207)">
      <circle id="Elipse_2-137" data-name="Elipse 2" class="cls-3" cx="3" cy="3" r="3" transform="translate(1208 231)"/>
    </g>
    <g transform="translate(-1150 207)">
      <circle id="Elipse_2-138" data-name="Elipse 2" class="cls-3" cx="3" cy="3" r="3" transform="translate(1208 231)"/>
    </g>
    <g transform="translate(-1121 207)">
      <circle id="Elipse_2-139" data-name="Elipse 2" class="cls-3" cx="3" cy="3" r="3" transform="translate(1208 231)"/>
    </g>
    <g transform="translate(-1092 207)">
      <circle id="Elipse_2-140" data-name="Elipse 2" class="cls-3" cx="3" cy="3" r="3" transform="translate(1208 231)"/>
    </g>
    <g transform="translate(-1063 207)">
      <circle id="Elipse_2-141" data-name="Elipse 2" class="cls-3" cx="3" cy="3" r="3" transform="translate(1208 231)"/>
    </g>
    <g transform="translate(-1034 207)">
      <circle id="Elipse_2-142" data-name="Elipse 2" class="cls-3" cx="3" cy="3" r="3" transform="translate(1208 231)"/>
    </g>
    <g transform="translate(-1005 207)">
      <circle id="Elipse_2-143" data-name="Elipse 2" class="cls-3" cx="3" cy="3" r="3" transform="translate(1208 231)"/>
    </g>
    <g transform="translate(-976 207)">
      <circle id="Elipse_2-144" data-name="Elipse 2" class="cls-3" cx="3" cy="3" r="3" transform="translate(1208 231)"/>
    </g>
  </g>
</svg>
