<svg xmlns="http://www.w3.org/2000/svg" width="47.182" height="74.034" viewBox="0 0 47.182 74.034">
  <defs>
    <style>
      .cls-1 {
        fill: #4b56f1;
      }
    </style>
  </defs>
  <g id="logo" transform="translate(-27.75 -54.997)">
    <circle id="Elipse_1" data-name="Elipse 1" class="cls-1" cx="4.323" cy="4.323" r="4.323" transform="translate(27.75 75.394)"/>
    <path id="Trazado_1" data-name="Trazado 1" class="cls-1" d="M111.466,81.5s4.577-31.021-34.072-25.936H74.85s10.171,1.017,12.714,18.307S89.6,96.752,92.649,98.787s-4.069,7.12-5.594,5.085,1.017,8.645-1.017,9.154-8.137,0-8.137,0-1.526,5.594,2.034,6.1,6.1-1.017,6.612,1.526,0,8.137,0,8.137,21.868,4.069,24.919-21.359V96.245S122.654,89.634,111.466,81.5ZM99.515,82.768A3.813,3.813,0,0,1,95.7,78.954h7.628A3.814,3.814,0,0,1,99.515,82.768Z" transform="translate(-41.506 0)"/>
  </g>
</svg>
