<?xml version="1.0" encoding="iso-8859-1"?>
<!-- Generator: Adobe Illustrator 16.0.0, SVG Export Plug-In . SVG Version: 6.00 Build 0)  -->
<!DOCTYPE svg PUBLIC "-//W3C//DTD SVG 1.1//EN" "http://www.w3.org/Graphics/SVG/1.1/DTD/svg11.dtd">
<svg version="1.1" id="Capa_1" xmlns="http://www.w3.org/2000/svg" xmlns:xlink="http://www.w3.org/1999/xlink" x="0px" y="0px"
	 width="94.058px" height="94.058px" viewBox="0 0 94.058 94.058" style="enable-background:new 0 0 94.058 94.058;"
	 xml:space="preserve">
<g>
	<g>
		<polygon points="71.351,26.355 59.453,46.947 47.556,26.355 35.663,46.939 23.77,26.355 11.867,46.955 23.77,67.556 
			35.663,46.971 47.556,67.556 59.453,46.964 71.351,67.556 83.254,46.955 		"/>
		<path d="M47.029,8.023C21.055,8.023,0,25.486,0,47.029c0,21.542,21.056,39.006,47.029,39.006s47.029-17.464,47.029-39.006
			C94.058,25.486,73.002,8.023,47.029,8.023z M47.029,82.595c-23.682,0-42.88-15.926-42.88-35.566
			c0-19.642,19.198-35.566,42.88-35.566s42.879,15.924,42.879,35.566C89.908,66.669,70.711,82.595,47.029,82.595z"/>
	</g>
</g>
<g>
</g>
<g>
</g>
<g>
</g>
<g>
</g>
<g>
</g>
<g>
</g>
<g>
</g>
<g>
</g>
<g>
</g>
<g>
</g>
<g>
</g>
<g>
</g>
<g>
</g>
<g>
</g>
<g>
</g>
</svg>
